<?xml version="1.0" encoding="UTF-8"?>
<svg width="49px" height="48px" viewBox="0 0 49 48" version="1.1" xmlns="http://www.w3.org/2000/svg" xmlns:xlink="http://www.w3.org/1999/xlink">
    <!-- Generator: Sketch 53.1 (72631) - https://sketchapp.com -->
    <title>linkedin</title>
    <desc>Created with Sketch.</desc>
    <g id="Welcome" stroke="none" stroke-width="1" fill="none" fill-rule="evenodd">
        <g id="Desktop" transform="translate(-720.000000, -356.000000)" fill="#EDAE49">
            <g id="Group" transform="translate(201.000000, 304.000000)">
                <path d="M555.2,82.6666667 L555.2,88 L549.866667,88 L549.866667,80 L544.533333,80 L544.533333,88 L539.2,88 L539.2,72 L544.533333,72 L544.533333,74.6666667 L552.533333,74.6666667 L552.533333,77.3333333 L555.2,77.3333333 L555.2,82.6666667 Z M531.2,69.6 L536.8,69.6 L536.8,64 L531.2,64 L531.2,69.6 Z M536.8,77.3333333 L536.8,88 L531.2,88 L531.2,72 L536.8,72 L536.8,77.3333333 Z M564.533333,57.3333333 L564.533333,54.6666667 L561.866667,54.6666667 L561.866667,52 L524.533333,52 L524.533333,54.6666667 L521.866667,54.6666667 L521.866667,57.3333333 L519.2,57.3333333 L519.2,94.6666667 L521.866667,94.6666667 L521.866667,97.3333333 L524.533333,97.3333333 L524.533333,100 L561.866667,100 L561.866667,97.3333333 L564.533333,97.3333333 L564.533333,94.6666667 L567.2,94.6666667 L567.2,57.3333333 L564.533333,57.3333333 L564.533333,57.3333333 Z" id="linkedin"></path>
            </g>
        </g>
    </g>
</svg>