<?xml version="1.0" encoding="UTF-8"?>
<svg width="49px" height="48px" viewBox="0 0 49 48" version="1.1" xmlns="http://www.w3.org/2000/svg" xmlns:xlink="http://www.w3.org/1999/xlink">
    <!-- Generator: Sketch 53.1 (72631) - https://sketchapp.com -->
    <title>twitter</title>
    <desc>Created with Sketch.</desc>
    <g id="Welcome" stroke="none" stroke-width="1" fill="none" fill-rule="evenodd">
        <g id="Desktop" transform="translate(-658.000000, -356.000000)" fill="#EDAE49">
            <g id="Group" transform="translate(201.000000, 304.000000)">
                <path d="M496.8,76.4 L491.418182,76.4 L491.418182,79.1 L488.727273,79.1 L488.727273,81.8 L486.036364,81.8 L486.036364,84.5 L483.345455,84.5 L483.345455,87.2 L467.2,87.2 L467.2,81.8 L472.581818,81.8 L472.581818,79.1 L469.890909,79.1 L469.890909,71 L467.2,71 L467.2,65.6 L472.581818,65.6 L472.581818,68.3 L475.272727,68.3 L475.272727,71 L477.963636,71 L477.963636,73.7 L480.654545,73.7 L480.654545,68.3 L483.345455,68.3 L483.345455,65.6 L488.727273,65.6 L488.727273,68.3 L491.418182,68.3 L491.418182,71 L496.8,71 L496.8,76.4 Z M502.933333,57.3333333 L502.933333,54.6666667 L500.266667,54.6666667 L500.266667,52 L462.933333,52 L462.933333,54.6666667 L460.266667,54.6666667 L460.266667,57.3333333 L457.6,57.3333333 L457.6,94.6666667 L460.266667,94.6666667 L460.266667,97.3333333 L462.933333,97.3333333 L462.933333,100 L500.266667,100 L500.266667,97.3333333 L502.933333,97.3333333 L502.933333,94.6666667 L505.6,94.6666667 L505.6,57.3333333 L502.933333,57.3333333 L502.933333,57.3333333 Z" id="twitter"></path>
            </g>
        </g>
    </g>
</svg>