<?xml version="1.0" standalone="no"?>
<!DOCTYPE svg PUBLIC "-//W3C//DTD SVG 20010904//EN"
 "http://www.w3.org/TR/2001/REC-SVG-20010904/DTD/svg10.dtd">
<svg version="1.0" xmlns="http://www.w3.org/2000/svg"
 width="315.000000pt" height="315.000000pt" viewBox="0 0 315.000000 315.000000"
 preserveAspectRatio="xMidYMid meet">
<metadata>
Created by potrace 1.11, written by Peter Selinger 2001-2013
</metadata>
<g transform="translate(0.000000,315.000000) scale(0.100000,-0.100000)"
fill="#000000" stroke="none">
<path d="M790 2355 l-785 -785 788 -788 787 -787 787 787 788 788 -785 785
c-432 432 -787 785 -790 785 -3 0 -358 -353 -790 -785z m320 -390 l0 -65 65 0
65 0 0 65 0 65 135 0 135 0 0 -65 0 -65 130 0 130 0 0 65 0 65 135 0 135 0 0
-65 0 -65 65 0 65 0 2 -332 3 -333 68 -3 67 -3 0 -64 0 -65 -200 0 -200 0 0
65 0 65 65 0 65 0 0 335 0 335 -135 0 -135 0 0 -65 0 -65 -65 0 -65 0 0 -270
0 -270 65 0 65 0 0 -65 0 -65 -200 0 -200 0 0 65 0 64 68 3 67 3 3 333 2 332
-135 0 -135 0 0 -65 0 -65 -65 0 -65 0 0 -270 0 -270 65 0 65 0 0 -65 0 -65
-200 0 -200 0 0 65 0 65 65 0 65 0 0 335 0 335 -65 0 -65 0 0 65 0 65 135 0
135 0 0 -65z"/>
</g>
</svg>
